<mxfile host="app.diagrams.net" modified="2023-03-31T08:56:09.332Z" agent="Mozilla/5.0 (Windows NT 10.0; Win64; x64) AppleWebKit/537.36 (KHTML, like Gecko) Chrome/111.0.0.0 Safari/537.36" etag="l13g90Fxe8WUT-CXKBxc" version="21.1.2" type="device">
  <diagram name="Side-1" id="e980P7_OQMobhTpvkmKT">
    <mxGraphModel dx="2625" dy="1353" grid="1" gridSize="10" guides="1" tooltips="1" connect="1" arrows="1" fold="1" page="1" pageScale="1" pageWidth="827" pageHeight="1169" math="0" shadow="0">
      <root>
        <mxCell id="0" />
        <mxCell id="1" parent="0" />
        <mxCell id="XzNW2Nr_GFc_0PMQGKqG-4" style="edgeStyle=orthogonalEdgeStyle;rounded=0;orthogonalLoop=1;jettySize=auto;html=1;entryX=0.5;entryY=0;entryDx=0;entryDy=0;" parent="1" source="XzNW2Nr_GFc_0PMQGKqG-1" target="XzNW2Nr_GFc_0PMQGKqG-3" edge="1">
          <mxGeometry relative="1" as="geometry" />
        </mxCell>
        <mxCell id="XzNW2Nr_GFc_0PMQGKqG-1" value="setup()" style="ellipse;whiteSpace=wrap;html=1;fillColor=#d5e8d4;strokeColor=#82b366;" parent="1" vertex="1">
          <mxGeometry x="240" y="40" width="120" height="80" as="geometry" />
        </mxCell>
        <mxCell id="XzNW2Nr_GFc_0PMQGKqG-14" style="edgeStyle=orthogonalEdgeStyle;rounded=0;orthogonalLoop=1;jettySize=auto;html=1;entryX=0.5;entryY=0;entryDx=0;entryDy=0;" parent="1" source="XzNW2Nr_GFc_0PMQGKqG-2" target="XzNW2Nr_GFc_0PMQGKqG-13" edge="1">
          <mxGeometry relative="1" as="geometry" />
        </mxCell>
        <mxCell id="XzNW2Nr_GFc_0PMQGKqG-2" value="draw()" style="ellipse;whiteSpace=wrap;html=1;fillColor=#d5e8d4;strokeColor=#82b366;" parent="1" vertex="1">
          <mxGeometry x="400" y="40" width="120" height="80" as="geometry" />
        </mxCell>
        <mxCell id="XzNW2Nr_GFc_0PMQGKqG-7" style="edgeStyle=orthogonalEdgeStyle;rounded=0;orthogonalLoop=1;jettySize=auto;html=1;entryX=0.5;entryY=0;entryDx=0;entryDy=0;" parent="1" source="XzNW2Nr_GFc_0PMQGKqG-3" target="XzNW2Nr_GFc_0PMQGKqG-5" edge="1">
          <mxGeometry relative="1" as="geometry" />
        </mxCell>
        <mxCell id="XzNW2Nr_GFc_0PMQGKqG-3" value="Sæt canvas størrelse" style="rounded=0;whiteSpace=wrap;html=1;" parent="1" vertex="1">
          <mxGeometry x="240" y="160" width="120" height="60" as="geometry" />
        </mxCell>
        <mxCell id="XzNW2Nr_GFc_0PMQGKqG-10" style="edgeStyle=orthogonalEdgeStyle;rounded=0;orthogonalLoop=1;jettySize=auto;html=1;entryX=0.5;entryY=0;entryDx=0;entryDy=0;" parent="1" source="XzNW2Nr_GFc_0PMQGKqG-5" target="XzNW2Nr_GFc_0PMQGKqG-9" edge="1">
          <mxGeometry relative="1" as="geometry" />
        </mxCell>
        <mxCell id="XzNW2Nr_GFc_0PMQGKqG-5" value="data_splitter()" style="shape=process;whiteSpace=wrap;html=1;backgroundOutline=1;fillColor=#dae8fc;strokeColor=#6c8ebf;" parent="1" vertex="1">
          <mxGeometry x="240" y="260" width="120" height="60" as="geometry" />
        </mxCell>
        <mxCell id="XzNW2Nr_GFc_0PMQGKqG-12" style="edgeStyle=orthogonalEdgeStyle;rounded=0;orthogonalLoop=1;jettySize=auto;html=1;entryX=0.5;entryY=0;entryDx=0;entryDy=0;" parent="1" source="XzNW2Nr_GFc_0PMQGKqG-9" target="XzNW2Nr_GFc_0PMQGKqG-11" edge="1">
          <mxGeometry relative="1" as="geometry" />
        </mxCell>
        <mxCell id="XzNW2Nr_GFc_0PMQGKqG-9" value="createGUI1()" style="shape=process;whiteSpace=wrap;html=1;backgroundOutline=1;fillColor=#dae8fc;strokeColor=#6c8ebf;" parent="1" vertex="1">
          <mxGeometry x="240" y="360" width="120" height="60" as="geometry" />
        </mxCell>
        <mxCell id="XzNW2Nr_GFc_0PMQGKqG-11" value="end" style="ellipse;whiteSpace=wrap;html=1;fillColor=#d5e8d4;strokeColor=#82b366;" parent="1" vertex="1">
          <mxGeometry x="240" y="460" width="120" height="80" as="geometry" />
        </mxCell>
        <mxCell id="XzNW2Nr_GFc_0PMQGKqG-18" style="edgeStyle=orthogonalEdgeStyle;rounded=0;orthogonalLoop=1;jettySize=auto;html=1;entryX=0.5;entryY=0;entryDx=0;entryDy=0;" parent="1" source="XzNW2Nr_GFc_0PMQGKqG-13" target="XzNW2Nr_GFc_0PMQGKqG-15" edge="1">
          <mxGeometry relative="1" as="geometry" />
        </mxCell>
        <mxCell id="XzNW2Nr_GFc_0PMQGKqG-13" value="Sæt baggrund" style="rounded=0;whiteSpace=wrap;html=1;" parent="1" vertex="1">
          <mxGeometry x="400" y="160" width="120" height="60" as="geometry" />
        </mxCell>
        <mxCell id="XzNW2Nr_GFc_0PMQGKqG-19" style="edgeStyle=orthogonalEdgeStyle;rounded=0;orthogonalLoop=1;jettySize=auto;html=1;entryX=0.5;entryY=0;entryDx=0;entryDy=0;" parent="1" source="XzNW2Nr_GFc_0PMQGKqG-15" target="XzNW2Nr_GFc_0PMQGKqG-16" edge="1">
          <mxGeometry relative="1" as="geometry" />
        </mxCell>
        <mxCell id="XzNW2Nr_GFc_0PMQGKqG-15" value="search_area()" style="shape=process;whiteSpace=wrap;html=1;backgroundOutline=1;fillColor=#dae8fc;strokeColor=#6c8ebf;" parent="1" vertex="1">
          <mxGeometry x="400" y="260" width="120" height="60" as="geometry" />
        </mxCell>
        <mxCell id="XzNW2Nr_GFc_0PMQGKqG-20" style="edgeStyle=orthogonalEdgeStyle;rounded=0;orthogonalLoop=1;jettySize=auto;html=1;entryX=0.5;entryY=0;entryDx=0;entryDy=0;" parent="1" source="XzNW2Nr_GFc_0PMQGKqG-16" target="XzNW2Nr_GFc_0PMQGKqG-17" edge="1">
          <mxGeometry relative="1" as="geometry" />
        </mxCell>
        <mxCell id="XzNW2Nr_GFc_0PMQGKqG-16" value="ScrollFix()" style="shape=process;whiteSpace=wrap;html=1;backgroundOutline=1;fillColor=#dae8fc;strokeColor=#6c8ebf;" parent="1" vertex="1">
          <mxGeometry x="400" y="360" width="120" height="60" as="geometry" />
        </mxCell>
        <mxCell id="XzNW2Nr_GFc_0PMQGKqG-17" value="end" style="ellipse;whiteSpace=wrap;html=1;fillColor=#d5e8d4;strokeColor=#82b366;" parent="1" vertex="1">
          <mxGeometry x="400" y="460" width="120" height="80" as="geometry" />
        </mxCell>
        <mxCell id="XzNW2Nr_GFc_0PMQGKqG-34" style="edgeStyle=orthogonalEdgeStyle;rounded=0;orthogonalLoop=1;jettySize=auto;html=1;entryX=0.5;entryY=0;entryDx=0;entryDy=0;" parent="1" target="XzNW2Nr_GFc_0PMQGKqG-22" edge="1">
          <mxGeometry relative="1" as="geometry">
            <mxPoint x="140" y="120" as="sourcePoint" />
          </mxGeometry>
        </mxCell>
        <mxCell id="XzNW2Nr_GFc_0PMQGKqG-23" style="edgeStyle=orthogonalEdgeStyle;rounded=0;orthogonalLoop=1;jettySize=auto;html=1;" parent="1" source="XzNW2Nr_GFc_0PMQGKqG-22" edge="1">
          <mxGeometry relative="1" as="geometry">
            <mxPoint x="140" y="320" as="targetPoint" />
            <Array as="points">
              <mxPoint x="200" y="300" />
              <mxPoint x="140" y="300" />
            </Array>
          </mxGeometry>
        </mxCell>
        <mxCell id="XzNW2Nr_GFc_0PMQGKqG-29" style="edgeStyle=orthogonalEdgeStyle;rounded=0;orthogonalLoop=1;jettySize=auto;html=1;entryX=0;entryY=0.5;entryDx=0;entryDy=0;" parent="1" source="XzNW2Nr_GFc_0PMQGKqG-22" target="XzNW2Nr_GFc_0PMQGKqG-25" edge="1">
          <mxGeometry relative="1" as="geometry">
            <mxPoint x="70" y="420" as="targetPoint" />
            <Array as="points">
              <mxPoint x="60" y="220" />
              <mxPoint x="60" y="420" />
            </Array>
          </mxGeometry>
        </mxCell>
        <mxCell id="XzNW2Nr_GFc_0PMQGKqG-22" value="Er mus indenfor området med søgeresultater?" style="rhombus;whiteSpace=wrap;html=1;" parent="1" vertex="1">
          <mxGeometry x="80" y="160" width="120" height="120" as="geometry" />
        </mxCell>
        <mxCell id="XzNW2Nr_GFc_0PMQGKqG-28" style="edgeStyle=orthogonalEdgeStyle;rounded=0;orthogonalLoop=1;jettySize=auto;html=1;entryX=0.5;entryY=0;entryDx=0;entryDy=0;" parent="1" source="XzNW2Nr_GFc_0PMQGKqG-24" target="XzNW2Nr_GFc_0PMQGKqG-25" edge="1">
          <mxGeometry relative="1" as="geometry" />
        </mxCell>
        <mxCell id="XzNW2Nr_GFc_0PMQGKqG-24" value="Scroll op/ned afhængig af scroll-retning" style="rounded=0;whiteSpace=wrap;html=1;" parent="1" vertex="1">
          <mxGeometry x="80" y="320" width="120" height="60" as="geometry" />
        </mxCell>
        <mxCell id="XzNW2Nr_GFc_0PMQGKqG-35" style="edgeStyle=orthogonalEdgeStyle;rounded=0;orthogonalLoop=1;jettySize=auto;html=1;entryX=0.5;entryY=0;entryDx=0;entryDy=0;" parent="1" source="XzNW2Nr_GFc_0PMQGKqG-25" target="XzNW2Nr_GFc_0PMQGKqG-33" edge="1">
          <mxGeometry relative="1" as="geometry" />
        </mxCell>
        <mxCell id="XzNW2Nr_GFc_0PMQGKqG-25" value="" style="ellipse;whiteSpace=wrap;html=1;aspect=fixed;" parent="1" vertex="1">
          <mxGeometry x="120" y="400" width="40" height="40" as="geometry" />
        </mxCell>
        <mxCell id="XzNW2Nr_GFc_0PMQGKqG-30" value="Ja" style="text;strokeColor=none;align=center;fillColor=none;html=1;verticalAlign=middle;whiteSpace=wrap;rounded=0;" parent="1" vertex="1">
          <mxGeometry x="160" y="250" width="60" height="30" as="geometry" />
        </mxCell>
        <mxCell id="XzNW2Nr_GFc_0PMQGKqG-32" value="Nej" style="text;strokeColor=none;align=center;fillColor=none;html=1;verticalAlign=middle;whiteSpace=wrap;rounded=0;" parent="1" vertex="1">
          <mxGeometry x="40" y="250" width="60" height="30" as="geometry" />
        </mxCell>
        <mxCell id="XzNW2Nr_GFc_0PMQGKqG-33" value="end" style="ellipse;whiteSpace=wrap;html=1;fillColor=#d5e8d4;strokeColor=#82b366;" parent="1" vertex="1">
          <mxGeometry x="80" y="460" width="120" height="80" as="geometry" />
        </mxCell>
        <mxCell id="XzNW2Nr_GFc_0PMQGKqG-39" style="edgeStyle=orthogonalEdgeStyle;rounded=0;orthogonalLoop=1;jettySize=auto;html=1;entryX=0.5;entryY=0;entryDx=0;entryDy=0;" parent="1" source="XzNW2Nr_GFc_0PMQGKqG-36" target="XzNW2Nr_GFc_0PMQGKqG-37" edge="1">
          <mxGeometry relative="1" as="geometry" />
        </mxCell>
        <mxCell id="XzNW2Nr_GFc_0PMQGKqG-36" value="data_splitter()" style="ellipse;whiteSpace=wrap;html=1;fillColor=#d5e8d4;strokeColor=#82b366;" parent="1" vertex="1">
          <mxGeometry x="560" y="40" width="120" height="80" as="geometry" />
        </mxCell>
        <mxCell id="XzNW2Nr_GFc_0PMQGKqG-41" style="edgeStyle=orthogonalEdgeStyle;rounded=0;orthogonalLoop=1;jettySize=auto;html=1;" parent="1" source="XzNW2Nr_GFc_0PMQGKqG-37" target="XzNW2Nr_GFc_0PMQGKqG-38" edge="1">
          <mxGeometry relative="1" as="geometry" />
        </mxCell>
        <mxCell id="XzNW2Nr_GFc_0PMQGKqG-37" value="Load filen &quot;Games.txt&quot;" style="rounded=0;whiteSpace=wrap;html=1;" parent="1" vertex="1">
          <mxGeometry x="560" y="160" width="120" height="60" as="geometry" />
        </mxCell>
        <mxCell id="XzNW2Nr_GFc_0PMQGKqG-42" style="edgeStyle=orthogonalEdgeStyle;rounded=0;orthogonalLoop=1;jettySize=auto;html=1;entryX=0.5;entryY=0;entryDx=0;entryDy=0;" parent="1" source="XzNW2Nr_GFc_0PMQGKqG-38" target="XzNW2Nr_GFc_0PMQGKqG-40" edge="1">
          <mxGeometry relative="1" as="geometry" />
        </mxCell>
        <mxCell id="XzNW2Nr_GFc_0PMQGKqG-38" value="Del alle elementer ind i 2d arrayet &quot;data&quot;" style="rounded=0;whiteSpace=wrap;html=1;" parent="1" vertex="1">
          <mxGeometry x="560" y="260" width="120" height="60" as="geometry" />
        </mxCell>
        <mxCell id="XzNW2Nr_GFc_0PMQGKqG-40" value="end" style="ellipse;whiteSpace=wrap;html=1;fillColor=#d5e8d4;strokeColor=#82b366;" parent="1" vertex="1">
          <mxGeometry x="560" y="360" width="120" height="80" as="geometry" />
        </mxCell>
        <mxCell id="XzNW2Nr_GFc_0PMQGKqG-46" style="edgeStyle=orthogonalEdgeStyle;rounded=0;orthogonalLoop=1;jettySize=auto;html=1;entryX=0.5;entryY=0;entryDx=0;entryDy=0;" parent="1" target="XzNW2Nr_GFc_0PMQGKqG-44" edge="1">
          <mxGeometry relative="1" as="geometry">
            <mxPoint x="140" y="680" as="sourcePoint" />
          </mxGeometry>
        </mxCell>
        <mxCell id="XzNW2Nr_GFc_0PMQGKqG-47" style="edgeStyle=orthogonalEdgeStyle;rounded=0;orthogonalLoop=1;jettySize=auto;html=1;entryX=0.5;entryY=0;entryDx=0;entryDy=0;" parent="1" source="XzNW2Nr_GFc_0PMQGKqG-44" target="XzNW2Nr_GFc_0PMQGKqG-45" edge="1">
          <mxGeometry relative="1" as="geometry" />
        </mxCell>
        <mxCell id="XzNW2Nr_GFc_0PMQGKqG-44" value="Sæt baggrundsfarve til mørk" style="rounded=0;whiteSpace=wrap;html=1;" parent="1" vertex="1">
          <mxGeometry x="80" y="720" width="120" height="60" as="geometry" />
        </mxCell>
        <mxCell id="XzNW2Nr_GFc_0PMQGKqG-45" value="end" style="ellipse;whiteSpace=wrap;html=1;fillColor=#d5e8d4;strokeColor=#82b366;" parent="1" vertex="1">
          <mxGeometry x="80" y="820" width="120" height="80" as="geometry" />
        </mxCell>
        <mxCell id="XzNW2Nr_GFc_0PMQGKqG-52" style="edgeStyle=orthogonalEdgeStyle;rounded=0;orthogonalLoop=1;jettySize=auto;html=1;entryX=0.5;entryY=0;entryDx=0;entryDy=0;" parent="1" target="XzNW2Nr_GFc_0PMQGKqG-49" edge="1">
          <mxGeometry relative="1" as="geometry">
            <mxPoint x="300" y="680" as="sourcePoint" />
          </mxGeometry>
        </mxCell>
        <mxCell id="XzNW2Nr_GFc_0PMQGKqG-53" style="edgeStyle=orthogonalEdgeStyle;rounded=0;orthogonalLoop=1;jettySize=auto;html=1;entryX=0.5;entryY=0;entryDx=0;entryDy=0;" parent="1" source="XzNW2Nr_GFc_0PMQGKqG-49" target="XzNW2Nr_GFc_0PMQGKqG-51" edge="1">
          <mxGeometry relative="1" as="geometry" />
        </mxCell>
        <mxCell id="XzNW2Nr_GFc_0PMQGKqG-49" value="Sæt baggrundsfarve til mørkegrå" style="rounded=0;whiteSpace=wrap;html=1;" parent="1" vertex="1">
          <mxGeometry x="240" y="720" width="120" height="60" as="geometry" />
        </mxCell>
        <mxCell id="XzNW2Nr_GFc_0PMQGKqG-51" value="end" style="ellipse;whiteSpace=wrap;html=1;fillColor=#d5e8d4;strokeColor=#82b366;" parent="1" vertex="1">
          <mxGeometry x="240" y="820" width="120" height="80" as="geometry" />
        </mxCell>
        <mxCell id="XzNW2Nr_GFc_0PMQGKqG-57" style="edgeStyle=orthogonalEdgeStyle;rounded=0;orthogonalLoop=1;jettySize=auto;html=1;entryX=0.5;entryY=0;entryDx=0;entryDy=0;" parent="1" source="XzNW2Nr_GFc_0PMQGKqG-54" target="XzNW2Nr_GFc_0PMQGKqG-55" edge="1">
          <mxGeometry relative="1" as="geometry" />
        </mxCell>
        <mxCell id="XzNW2Nr_GFc_0PMQGKqG-54" value="createGUI1()" style="ellipse;whiteSpace=wrap;html=1;fillColor=#d5e8d4;strokeColor=#82b366;" parent="1" vertex="1">
          <mxGeometry x="400" y="600" width="120" height="80" as="geometry" />
        </mxCell>
        <mxCell id="XzNW2Nr_GFc_0PMQGKqG-58" style="edgeStyle=orthogonalEdgeStyle;rounded=0;orthogonalLoop=1;jettySize=auto;html=1;entryX=0.5;entryY=0;entryDx=0;entryDy=0;" parent="1" source="XzNW2Nr_GFc_0PMQGKqG-55" target="XzNW2Nr_GFc_0PMQGKqG-56" edge="1">
          <mxGeometry relative="1" as="geometry" />
        </mxCell>
        <mxCell id="XzNW2Nr_GFc_0PMQGKqG-55" value="Lav GUI" style="rounded=0;whiteSpace=wrap;html=1;" parent="1" vertex="1">
          <mxGeometry x="400" y="720" width="120" height="60" as="geometry" />
        </mxCell>
        <mxCell id="XzNW2Nr_GFc_0PMQGKqG-56" value="end" style="ellipse;whiteSpace=wrap;html=1;fillColor=#d5e8d4;strokeColor=#82b366;" parent="1" vertex="1">
          <mxGeometry x="400" y="820" width="120" height="80" as="geometry" />
        </mxCell>
        <mxCell id="XzNW2Nr_GFc_0PMQGKqG-68" style="edgeStyle=orthogonalEdgeStyle;rounded=0;orthogonalLoop=1;jettySize=auto;html=1;entryX=0.5;entryY=0;entryDx=0;entryDy=0;" parent="1" source="XzNW2Nr_GFc_0PMQGKqG-59" target="XzNW2Nr_GFc_0PMQGKqG-60" edge="1">
          <mxGeometry relative="1" as="geometry" />
        </mxCell>
        <mxCell id="XzNW2Nr_GFc_0PMQGKqG-59" value="ScrollFix()" style="ellipse;whiteSpace=wrap;html=1;fillColor=#d5e8d4;strokeColor=#82b366;" parent="1" vertex="1">
          <mxGeometry x="560" y="600" width="120" height="80" as="geometry" />
        </mxCell>
        <mxCell id="XzNW2Nr_GFc_0PMQGKqG-69" style="edgeStyle=orthogonalEdgeStyle;rounded=0;orthogonalLoop=1;jettySize=auto;html=1;entryX=0;entryY=0.5;entryDx=0;entryDy=0;" parent="1" source="XzNW2Nr_GFc_0PMQGKqG-60" target="XzNW2Nr_GFc_0PMQGKqG-61" edge="1">
          <mxGeometry relative="1" as="geometry">
            <Array as="points">
              <mxPoint x="540" y="780" />
              <mxPoint x="540" y="910" />
            </Array>
          </mxGeometry>
        </mxCell>
        <mxCell id="XzNW2Nr_GFc_0PMQGKqG-70" style="edgeStyle=orthogonalEdgeStyle;rounded=0;orthogonalLoop=1;jettySize=auto;html=1;entryX=1;entryY=0.5;entryDx=0;entryDy=0;" parent="1" source="XzNW2Nr_GFc_0PMQGKqG-60" target="XzNW2Nr_GFc_0PMQGKqG-63" edge="1">
          <mxGeometry relative="1" as="geometry">
            <Array as="points">
              <mxPoint x="700" y="780" />
              <mxPoint x="700" y="980" />
            </Array>
          </mxGeometry>
        </mxCell>
        <mxCell id="XzNW2Nr_GFc_0PMQGKqG-60" value="Er&lt;br&gt;søgeresultaterne scrolled højere end toppen?" style="rhombus;whiteSpace=wrap;html=1;" parent="1" vertex="1">
          <mxGeometry x="560" y="720" width="120" height="120" as="geometry" />
        </mxCell>
        <mxCell id="XzNW2Nr_GFc_0PMQGKqG-71" style="edgeStyle=orthogonalEdgeStyle;rounded=0;orthogonalLoop=1;jettySize=auto;html=1;entryX=0.5;entryY=0;entryDx=0;entryDy=0;" parent="1" source="XzNW2Nr_GFc_0PMQGKqG-61" target="XzNW2Nr_GFc_0PMQGKqG-63" edge="1">
          <mxGeometry relative="1" as="geometry" />
        </mxCell>
        <mxCell id="XzNW2Nr_GFc_0PMQGKqG-61" value="Sæt scrolled til toppen" style="rounded=0;whiteSpace=wrap;html=1;" parent="1" vertex="1">
          <mxGeometry x="560" y="880" width="120" height="60" as="geometry" />
        </mxCell>
        <mxCell id="XzNW2Nr_GFc_0PMQGKqG-72" style="edgeStyle=orthogonalEdgeStyle;rounded=0;orthogonalLoop=1;jettySize=auto;html=1;entryX=0.5;entryY=0;entryDx=0;entryDy=0;" parent="1" source="XzNW2Nr_GFc_0PMQGKqG-63" target="XzNW2Nr_GFc_0PMQGKqG-64" edge="1">
          <mxGeometry relative="1" as="geometry" />
        </mxCell>
        <mxCell id="XzNW2Nr_GFc_0PMQGKqG-63" value="" style="ellipse;whiteSpace=wrap;html=1;aspect=fixed;" parent="1" vertex="1">
          <mxGeometry x="600" y="960" width="40" height="40" as="geometry" />
        </mxCell>
        <mxCell id="XzNW2Nr_GFc_0PMQGKqG-73" style="edgeStyle=orthogonalEdgeStyle;rounded=0;orthogonalLoop=1;jettySize=auto;html=1;entryX=0;entryY=0.5;entryDx=0;entryDy=0;" parent="1" source="XzNW2Nr_GFc_0PMQGKqG-64" target="XzNW2Nr_GFc_0PMQGKqG-65" edge="1">
          <mxGeometry relative="1" as="geometry">
            <Array as="points">
              <mxPoint x="540" y="1100" />
              <mxPoint x="540" y="1230" />
            </Array>
          </mxGeometry>
        </mxCell>
        <mxCell id="XzNW2Nr_GFc_0PMQGKqG-74" style="edgeStyle=orthogonalEdgeStyle;rounded=0;orthogonalLoop=1;jettySize=auto;html=1;entryX=1;entryY=0.5;entryDx=0;entryDy=0;" parent="1" source="XzNW2Nr_GFc_0PMQGKqG-64" target="XzNW2Nr_GFc_0PMQGKqG-66" edge="1">
          <mxGeometry relative="1" as="geometry">
            <Array as="points">
              <mxPoint x="700" y="1100" />
              <mxPoint x="700" y="1300" />
            </Array>
          </mxGeometry>
        </mxCell>
        <mxCell id="XzNW2Nr_GFc_0PMQGKqG-64" value="Er&lt;br&gt;søgeresultaterne scrolled lavere end bunden?" style="rhombus;whiteSpace=wrap;html=1;" parent="1" vertex="1">
          <mxGeometry x="560" y="1040" width="120" height="120" as="geometry" />
        </mxCell>
        <mxCell id="XzNW2Nr_GFc_0PMQGKqG-76" style="edgeStyle=orthogonalEdgeStyle;rounded=0;orthogonalLoop=1;jettySize=auto;html=1;entryX=0.5;entryY=0;entryDx=0;entryDy=0;" parent="1" source="XzNW2Nr_GFc_0PMQGKqG-65" target="XzNW2Nr_GFc_0PMQGKqG-66" edge="1">
          <mxGeometry relative="1" as="geometry" />
        </mxCell>
        <mxCell id="XzNW2Nr_GFc_0PMQGKqG-65" value="Sæt scrolled til bunden" style="rounded=0;whiteSpace=wrap;html=1;" parent="1" vertex="1">
          <mxGeometry x="560" y="1200" width="120" height="60" as="geometry" />
        </mxCell>
        <mxCell id="XzNW2Nr_GFc_0PMQGKqG-77" style="edgeStyle=orthogonalEdgeStyle;rounded=0;orthogonalLoop=1;jettySize=auto;html=1;entryX=0.5;entryY=0;entryDx=0;entryDy=0;" parent="1" source="XzNW2Nr_GFc_0PMQGKqG-66" target="XzNW2Nr_GFc_0PMQGKqG-67" edge="1">
          <mxGeometry relative="1" as="geometry" />
        </mxCell>
        <mxCell id="XzNW2Nr_GFc_0PMQGKqG-66" value="" style="ellipse;whiteSpace=wrap;html=1;aspect=fixed;" parent="1" vertex="1">
          <mxGeometry x="600" y="1280" width="40" height="40" as="geometry" />
        </mxCell>
        <mxCell id="XzNW2Nr_GFc_0PMQGKqG-67" value="end" style="ellipse;whiteSpace=wrap;html=1;fillColor=#d5e8d4;strokeColor=#82b366;" parent="1" vertex="1">
          <mxGeometry x="560" y="1350" width="120" height="80" as="geometry" />
        </mxCell>
        <mxCell id="XzNW2Nr_GFc_0PMQGKqG-78" value="Ja" style="text;html=1;strokeColor=none;fillColor=none;align=center;verticalAlign=middle;whiteSpace=wrap;rounded=0;" parent="1" vertex="1">
          <mxGeometry x="520" y="810" width="60" height="30" as="geometry" />
        </mxCell>
        <mxCell id="XzNW2Nr_GFc_0PMQGKqG-79" value="Ja" style="text;html=1;strokeColor=none;fillColor=none;align=center;verticalAlign=middle;whiteSpace=wrap;rounded=0;" parent="1" vertex="1">
          <mxGeometry x="520" y="1130" width="60" height="30" as="geometry" />
        </mxCell>
        <mxCell id="XzNW2Nr_GFc_0PMQGKqG-80" value="Nej" style="text;html=1;strokeColor=none;fillColor=none;align=center;verticalAlign=middle;whiteSpace=wrap;rounded=0;" parent="1" vertex="1">
          <mxGeometry x="660" y="1130" width="60" height="30" as="geometry" />
        </mxCell>
        <mxCell id="XzNW2Nr_GFc_0PMQGKqG-81" value="Nej" style="text;html=1;strokeColor=none;fillColor=none;align=center;verticalAlign=middle;whiteSpace=wrap;rounded=0;" parent="1" vertex="1">
          <mxGeometry x="660" y="810" width="60" height="30" as="geometry" />
        </mxCell>
        <mxCell id="XzNW2Nr_GFc_0PMQGKqG-88" style="edgeStyle=orthogonalEdgeStyle;rounded=0;orthogonalLoop=1;jettySize=auto;html=1;entryX=0.5;entryY=0;entryDx=0;entryDy=0;" parent="1" source="XzNW2Nr_GFc_0PMQGKqG-82" target="XzNW2Nr_GFc_0PMQGKqG-87" edge="1">
          <mxGeometry relative="1" as="geometry" />
        </mxCell>
        <mxCell id="XzNW2Nr_GFc_0PMQGKqG-82" value="search_area()" style="ellipse;whiteSpace=wrap;html=1;fillColor=#d5e8d4;strokeColor=#82b366;" parent="1" vertex="1">
          <mxGeometry x="720" y="40" width="120" height="80" as="geometry" />
        </mxCell>
        <mxCell id="XzNW2Nr_GFc_0PMQGKqG-84" value="mouseWheel()" style="shape=parallelogram;perimeter=parallelogramPerimeter;whiteSpace=wrap;html=1;fixedSize=1;fillColor=#d5e8d4;strokeColor=#82b366;" parent="1" vertex="1">
          <mxGeometry x="80" y="60" width="120" height="60" as="geometry" />
        </mxCell>
        <mxCell id="XzNW2Nr_GFc_0PMQGKqG-85" value="button1_click1()" style="shape=parallelogram;perimeter=parallelogramPerimeter;whiteSpace=wrap;html=1;fixedSize=1;fillColor=#d5e8d4;strokeColor=#82b366;" parent="1" vertex="1">
          <mxGeometry x="80" y="620" width="120" height="60" as="geometry" />
        </mxCell>
        <mxCell id="XzNW2Nr_GFc_0PMQGKqG-86" value="button2_click2()" style="shape=parallelogram;perimeter=parallelogramPerimeter;whiteSpace=wrap;html=1;fixedSize=1;fillColor=#d5e8d4;strokeColor=#82b366;" parent="1" vertex="1">
          <mxGeometry x="240" y="620" width="120" height="60" as="geometry" />
        </mxCell>
        <mxCell id="XzNW2Nr_GFc_0PMQGKqG-90" style="edgeStyle=orthogonalEdgeStyle;rounded=0;orthogonalLoop=1;jettySize=auto;html=1;entryX=0.5;entryY=0;entryDx=0;entryDy=0;" parent="1" source="XzNW2Nr_GFc_0PMQGKqG-87" target="XzNW2Nr_GFc_0PMQGKqG-89" edge="1">
          <mxGeometry relative="1" as="geometry">
            <Array as="points">
              <mxPoint x="900" y="190" />
            </Array>
          </mxGeometry>
        </mxCell>
        <mxCell id="QN1ebD7quIqS0tewND19-3" style="edgeStyle=orthogonalEdgeStyle;rounded=0;orthogonalLoop=1;jettySize=auto;html=1;entryX=0;entryY=0.5;entryDx=0;entryDy=0;" parent="1" source="XzNW2Nr_GFc_0PMQGKqG-87" target="QN1ebD7quIqS0tewND19-1" edge="1">
          <mxGeometry relative="1" as="geometry">
            <mxPoint x="730" y="570" as="targetPoint" />
            <Array as="points">
              <mxPoint x="740" y="740" />
            </Array>
          </mxGeometry>
        </mxCell>
        <mxCell id="XzNW2Nr_GFc_0PMQGKqG-87" value="For alle rækker i &quot;data&quot;" style="rounded=0;whiteSpace=wrap;html=1;" parent="1" vertex="1">
          <mxGeometry x="720" y="160" width="120" height="60" as="geometry" />
        </mxCell>
        <mxCell id="XzNW2Nr_GFc_0PMQGKqG-93" style="edgeStyle=orthogonalEdgeStyle;rounded=0;orthogonalLoop=1;jettySize=auto;html=1;entryX=0.5;entryY=0;entryDx=0;entryDy=0;" parent="1" source="XzNW2Nr_GFc_0PMQGKqG-89" edge="1">
          <mxGeometry relative="1" as="geometry">
            <mxPoint x="1000" y="360" as="targetPoint" />
            <Array as="points">
              <mxPoint x="1000" y="280" />
              <mxPoint x="1000" y="350" />
            </Array>
          </mxGeometry>
        </mxCell>
        <mxCell id="XzNW2Nr_GFc_0PMQGKqG-98" style="edgeStyle=orthogonalEdgeStyle;rounded=0;orthogonalLoop=1;jettySize=auto;html=1;entryX=0;entryY=0.5;entryDx=0;entryDy=0;" parent="1" source="XzNW2Nr_GFc_0PMQGKqG-89" target="XzNW2Nr_GFc_0PMQGKqG-97" edge="1">
          <mxGeometry relative="1" as="geometry" />
        </mxCell>
        <mxCell id="XzNW2Nr_GFc_0PMQGKqG-89" value="Indeholder&lt;br&gt;noget af spillet, det der søges efter?" style="rhombus;whiteSpace=wrap;html=1;" parent="1" vertex="1">
          <mxGeometry x="840" y="220" width="120" height="120" as="geometry" />
        </mxCell>
        <mxCell id="XzNW2Nr_GFc_0PMQGKqG-96" style="edgeStyle=orthogonalEdgeStyle;rounded=0;orthogonalLoop=1;jettySize=auto;html=1;entryX=0.5;entryY=0;entryDx=0;entryDy=0;" parent="1" source="XzNW2Nr_GFc_0PMQGKqG-94" target="XzNW2Nr_GFc_0PMQGKqG-95" edge="1">
          <mxGeometry relative="1" as="geometry">
            <mxPoint x="1110" y="460" as="targetPoint" />
            <Array as="points">
              <mxPoint x="1100" y="420" />
            </Array>
          </mxGeometry>
        </mxCell>
        <mxCell id="XzNW2Nr_GFc_0PMQGKqG-99" style="edgeStyle=orthogonalEdgeStyle;rounded=0;orthogonalLoop=1;jettySize=auto;html=1;entryX=0.5;entryY=0;entryDx=0;entryDy=0;" parent="1" source="XzNW2Nr_GFc_0PMQGKqG-94" target="XzNW2Nr_GFc_0PMQGKqG-97" edge="1">
          <mxGeometry relative="1" as="geometry">
            <Array as="points">
              <mxPoint x="930" y="420" />
              <mxPoint x="930" y="560" />
            </Array>
          </mxGeometry>
        </mxCell>
        <mxCell id="XzNW2Nr_GFc_0PMQGKqG-94" value="Er musen&lt;br&gt;indenfor en af knapperne?" style="rhombus;whiteSpace=wrap;html=1;" parent="1" vertex="1">
          <mxGeometry x="940" y="360" width="120" height="120" as="geometry" />
        </mxCell>
        <mxCell id="XzNW2Nr_GFc_0PMQGKqG-100" style="edgeStyle=orthogonalEdgeStyle;rounded=0;orthogonalLoop=1;jettySize=auto;html=1;entryX=1;entryY=0.5;entryDx=0;entryDy=0;" parent="1" source="XzNW2Nr_GFc_0PMQGKqG-95" target="XzNW2Nr_GFc_0PMQGKqG-97" edge="1">
          <mxGeometry relative="1" as="geometry">
            <Array as="points">
              <mxPoint x="1100" y="580" />
            </Array>
          </mxGeometry>
        </mxCell>
        <mxCell id="XzNW2Nr_GFc_0PMQGKqG-95" value="Ændrer tekstfeltets farve" style="rounded=0;whiteSpace=wrap;html=1;" parent="1" vertex="1">
          <mxGeometry x="1040" y="480" width="120" height="60" as="geometry" />
        </mxCell>
        <mxCell id="XzNW2Nr_GFc_0PMQGKqG-102" style="edgeStyle=orthogonalEdgeStyle;rounded=0;orthogonalLoop=1;jettySize=auto;html=1;entryX=0.5;entryY=0;entryDx=0;entryDy=0;" parent="1" source="XzNW2Nr_GFc_0PMQGKqG-97" target="XzNW2Nr_GFc_0PMQGKqG-101" edge="1">
          <mxGeometry relative="1" as="geometry" />
        </mxCell>
        <mxCell id="XzNW2Nr_GFc_0PMQGKqG-97" value="" style="ellipse;whiteSpace=wrap;html=1;aspect=fixed;" parent="1" vertex="1">
          <mxGeometry x="800" y="560" width="40" height="40" as="geometry" />
        </mxCell>
        <mxCell id="QN1ebD7quIqS0tewND19-2" style="edgeStyle=orthogonalEdgeStyle;rounded=0;orthogonalLoop=1;jettySize=auto;html=1;entryX=0.5;entryY=0;entryDx=0;entryDy=0;" parent="1" source="XzNW2Nr_GFc_0PMQGKqG-101" target="QN1ebD7quIqS0tewND19-1" edge="1">
          <mxGeometry relative="1" as="geometry" />
        </mxCell>
        <mxCell id="XzNW2Nr_GFc_0PMQGKqG-101" value="Placer spillets navn i søgeresultatslisten" style="rounded=0;whiteSpace=wrap;html=1;" parent="1" vertex="1">
          <mxGeometry x="760" y="620" width="120" height="60" as="geometry" />
        </mxCell>
        <mxCell id="QN1ebD7quIqS0tewND19-5" style="edgeStyle=orthogonalEdgeStyle;rounded=0;orthogonalLoop=1;jettySize=auto;html=1;entryX=0.5;entryY=0;entryDx=0;entryDy=0;" parent="1" source="QN1ebD7quIqS0tewND19-1" target="QN1ebD7quIqS0tewND19-4" edge="1">
          <mxGeometry relative="1" as="geometry" />
        </mxCell>
        <mxCell id="QN1ebD7quIqS0tewND19-1" value="" style="ellipse;whiteSpace=wrap;html=1;aspect=fixed;" parent="1" vertex="1">
          <mxGeometry x="800" y="720" width="40" height="40" as="geometry" />
        </mxCell>
        <mxCell id="QN1ebD7quIqS0tewND19-7" style="edgeStyle=orthogonalEdgeStyle;rounded=0;orthogonalLoop=1;jettySize=auto;html=1;entryX=0.5;entryY=0;entryDx=0;entryDy=0;" parent="1" source="QN1ebD7quIqS0tewND19-4" target="QN1ebD7quIqS0tewND19-6" edge="1">
          <mxGeometry relative="1" as="geometry">
            <Array as="points">
              <mxPoint x="900" y="830" />
            </Array>
          </mxGeometry>
        </mxCell>
        <mxCell id="QN1ebD7quIqS0tewND19-13" style="edgeStyle=orthogonalEdgeStyle;rounded=0;orthogonalLoop=1;jettySize=auto;html=1;entryX=0;entryY=0.5;entryDx=0;entryDy=0;" parent="1" source="QN1ebD7quIqS0tewND19-4" target="QN1ebD7quIqS0tewND19-10" edge="1">
          <mxGeometry relative="1" as="geometry" />
        </mxCell>
        <mxCell id="QN1ebD7quIqS0tewND19-4" value="For alle rækker i &quot;data&quot;" style="rounded=0;whiteSpace=wrap;html=1;" parent="1" vertex="1">
          <mxGeometry x="720" y="800" width="120" height="60" as="geometry" />
        </mxCell>
        <mxCell id="QN1ebD7quIqS0tewND19-9" style="edgeStyle=orthogonalEdgeStyle;rounded=0;orthogonalLoop=1;jettySize=auto;html=1;entryX=0.5;entryY=0;entryDx=0;entryDy=0;" parent="1" source="QN1ebD7quIqS0tewND19-6" target="QN1ebD7quIqS0tewND19-8" edge="1">
          <mxGeometry relative="1" as="geometry">
            <Array as="points">
              <mxPoint x="980" y="920" />
            </Array>
          </mxGeometry>
        </mxCell>
        <mxCell id="QN1ebD7quIqS0tewND19-12" style="edgeStyle=orthogonalEdgeStyle;rounded=0;orthogonalLoop=1;jettySize=auto;html=1;entryX=0.5;entryY=0;entryDx=0;entryDy=0;" parent="1" source="QN1ebD7quIqS0tewND19-6" target="QN1ebD7quIqS0tewND19-10" edge="1">
          <mxGeometry relative="1" as="geometry">
            <Array as="points">
              <mxPoint x="820" y="920" />
            </Array>
          </mxGeometry>
        </mxCell>
        <mxCell id="QN1ebD7quIqS0tewND19-6" value="Indeholder&lt;br&gt;noget af spillet, det der søges efter?" style="rhombus;whiteSpace=wrap;html=1;" parent="1" vertex="1">
          <mxGeometry x="840" y="860" width="120" height="120" as="geometry" />
        </mxCell>
        <mxCell id="QN1ebD7quIqS0tewND19-11" style="edgeStyle=orthogonalEdgeStyle;rounded=0;orthogonalLoop=1;jettySize=auto;html=1;entryX=1;entryY=0.5;entryDx=0;entryDy=0;" parent="1" source="QN1ebD7quIqS0tewND19-8" target="QN1ebD7quIqS0tewND19-10" edge="1">
          <mxGeometry relative="1" as="geometry">
            <Array as="points">
              <mxPoint x="980" y="1140" />
            </Array>
          </mxGeometry>
        </mxCell>
        <mxCell id="QN1ebD7quIqS0tewND19-8" value="Sæt spillets ID ind i nyt array &quot;searchButtons&quot;, sammen med start og slut y-koordinat" style="rounded=0;whiteSpace=wrap;html=1;" parent="1" vertex="1">
          <mxGeometry x="920" y="1000" width="120" height="80" as="geometry" />
        </mxCell>
        <mxCell id="QN1ebD7quIqS0tewND19-15" style="edgeStyle=orthogonalEdgeStyle;rounded=0;orthogonalLoop=1;jettySize=auto;html=1;entryX=0.5;entryY=0;entryDx=0;entryDy=0;" parent="1" source="QN1ebD7quIqS0tewND19-10" target="QN1ebD7quIqS0tewND19-14" edge="1">
          <mxGeometry relative="1" as="geometry">
            <Array as="points">
              <mxPoint x="820" y="1200" />
              <mxPoint x="1200" y="1200" />
              <mxPoint x="1200" y="140" />
              <mxPoint x="1360" y="140" />
            </Array>
          </mxGeometry>
        </mxCell>
        <mxCell id="QN1ebD7quIqS0tewND19-10" value="" style="ellipse;whiteSpace=wrap;html=1;aspect=fixed;" parent="1" vertex="1">
          <mxGeometry x="800" y="1120" width="40" height="40" as="geometry" />
        </mxCell>
        <mxCell id="g2C8MorUsqMuOVDlnP0T-1" style="edgeStyle=orthogonalEdgeStyle;rounded=0;orthogonalLoop=1;jettySize=auto;html=1;entryX=0.5;entryY=0;entryDx=0;entryDy=0;" parent="1" source="QN1ebD7quIqS0tewND19-14" target="QN1ebD7quIqS0tewND19-16" edge="1">
          <mxGeometry relative="1" as="geometry">
            <Array as="points">
              <mxPoint x="1480" y="260" />
              <mxPoint x="1480" y="380" />
              <mxPoint x="1360" y="380" />
            </Array>
          </mxGeometry>
        </mxCell>
        <mxCell id="g2C8MorUsqMuOVDlnP0T-9" style="edgeStyle=orthogonalEdgeStyle;rounded=0;orthogonalLoop=1;jettySize=auto;html=1;entryX=0;entryY=0.5;entryDx=0;entryDy=0;" parent="1" source="QN1ebD7quIqS0tewND19-14" target="g2C8MorUsqMuOVDlnP0T-6" edge="1">
          <mxGeometry relative="1" as="geometry">
            <mxPoint x="1240" y="989.199951171875" as="targetPoint" />
            <Array as="points">
              <mxPoint x="1240" y="260" />
              <mxPoint x="1240" y="780" />
            </Array>
          </mxGeometry>
        </mxCell>
        <mxCell id="QN1ebD7quIqS0tewND19-14" value="Er frameCount større&lt;br&gt;end eller lig med 1, blev der trykket på musen, og er en&lt;br&gt;knap aktiv?" style="rhombus;whiteSpace=wrap;html=1;" parent="1" vertex="1">
          <mxGeometry x="1260" y="160" width="200" height="200" as="geometry" />
        </mxCell>
        <mxCell id="g2C8MorUsqMuOVDlnP0T-3" style="edgeStyle=orthogonalEdgeStyle;rounded=0;orthogonalLoop=1;jettySize=auto;html=1;entryX=0.5;entryY=0;entryDx=0;entryDy=0;" parent="1" source="QN1ebD7quIqS0tewND19-16" target="g2C8MorUsqMuOVDlnP0T-2" edge="1">
          <mxGeometry relative="1" as="geometry" />
        </mxCell>
        <mxCell id="QN1ebD7quIqS0tewND19-16" value="For alle rækkerne i &quot;searchButtons&quot;" style="rounded=0;whiteSpace=wrap;html=1;" parent="1" vertex="1">
          <mxGeometry x="1300" y="400" width="120" height="60" as="geometry" />
        </mxCell>
        <mxCell id="g2C8MorUsqMuOVDlnP0T-5" style="edgeStyle=orthogonalEdgeStyle;rounded=0;orthogonalLoop=1;jettySize=auto;html=1;entryX=0.5;entryY=0;entryDx=0;entryDy=0;" parent="1" source="g2C8MorUsqMuOVDlnP0T-2" target="g2C8MorUsqMuOVDlnP0T-4" edge="1">
          <mxGeometry relative="1" as="geometry">
            <Array as="points">
              <mxPoint x="1440" y="540" />
              <mxPoint x="1440" y="620" />
              <mxPoint x="1360" y="620" />
            </Array>
          </mxGeometry>
        </mxCell>
        <mxCell id="g2C8MorUsqMuOVDlnP0T-8" style="edgeStyle=orthogonalEdgeStyle;rounded=0;orthogonalLoop=1;jettySize=auto;html=1;entryX=0.5;entryY=0;entryDx=0;entryDy=0;" parent="1" source="g2C8MorUsqMuOVDlnP0T-2" target="g2C8MorUsqMuOVDlnP0T-6" edge="1">
          <mxGeometry relative="1" as="geometry">
            <Array as="points">
              <mxPoint x="1270" y="540" />
              <mxPoint x="1270" y="730" />
              <mxPoint x="1320" y="730" />
            </Array>
          </mxGeometry>
        </mxCell>
        <mxCell id="g2C8MorUsqMuOVDlnP0T-2" value="Er musen udenfor&lt;br&gt;en af knapperne?" style="rhombus;whiteSpace=wrap;html=1;" parent="1" vertex="1">
          <mxGeometry x="1300" y="480" width="120" height="120" as="geometry" />
        </mxCell>
        <mxCell id="g2C8MorUsqMuOVDlnP0T-7" style="edgeStyle=orthogonalEdgeStyle;rounded=0;orthogonalLoop=1;jettySize=auto;html=1;entryX=1;entryY=0.5;entryDx=0;entryDy=0;" parent="1" source="g2C8MorUsqMuOVDlnP0T-4" target="g2C8MorUsqMuOVDlnP0T-6" edge="1">
          <mxGeometry relative="1" as="geometry" />
        </mxCell>
        <mxCell id="g2C8MorUsqMuOVDlnP0T-4" value="Sæt index til aktiv knap til fra" style="rounded=0;whiteSpace=wrap;html=1;" parent="1" vertex="1">
          <mxGeometry x="1300" y="640" width="120" height="60" as="geometry" />
        </mxCell>
        <mxCell id="g2C8MorUsqMuOVDlnP0T-11" style="edgeStyle=orthogonalEdgeStyle;rounded=0;orthogonalLoop=1;jettySize=auto;html=1;entryX=0.5;entryY=0;entryDx=0;entryDy=0;" parent="1" source="g2C8MorUsqMuOVDlnP0T-6" target="g2C8MorUsqMuOVDlnP0T-10" edge="1">
          <mxGeometry relative="1" as="geometry" />
        </mxCell>
        <mxCell id="g2C8MorUsqMuOVDlnP0T-6" value="" style="ellipse;whiteSpace=wrap;html=1;aspect=fixed;" parent="1" vertex="1">
          <mxGeometry x="1300" y="760" width="40" height="40" as="geometry" />
        </mxCell>
        <mxCell id="g2C8MorUsqMuOVDlnP0T-13" style="edgeStyle=orthogonalEdgeStyle;rounded=0;orthogonalLoop=1;jettySize=auto;html=1;" parent="1" source="g2C8MorUsqMuOVDlnP0T-10" target="g2C8MorUsqMuOVDlnP0T-12" edge="1">
          <mxGeometry relative="1" as="geometry">
            <Array as="points">
              <mxPoint x="1440" y="920" />
            </Array>
          </mxGeometry>
        </mxCell>
        <mxCell id="g2C8MorUsqMuOVDlnP0T-21" style="edgeStyle=orthogonalEdgeStyle;rounded=0;orthogonalLoop=1;jettySize=auto;html=1;entryX=0;entryY=0.5;entryDx=0;entryDy=0;" parent="1" source="g2C8MorUsqMuOVDlnP0T-10" target="g2C8MorUsqMuOVDlnP0T-18" edge="1">
          <mxGeometry relative="1" as="geometry">
            <mxPoint x="1200" y="1320" as="targetPoint" />
            <Array as="points">
              <mxPoint x="1220" y="920" />
              <mxPoint x="1220" y="1420" />
            </Array>
          </mxGeometry>
        </mxCell>
        <mxCell id="g2C8MorUsqMuOVDlnP0T-10" value="Er frameCount på &lt;br&gt;mindst1, og er musen blevet trykket?" style="rhombus;whiteSpace=wrap;html=1;" parent="1" vertex="1">
          <mxGeometry x="1240" y="840" width="160" height="160" as="geometry" />
        </mxCell>
        <mxCell id="g2C8MorUsqMuOVDlnP0T-15" style="edgeStyle=orthogonalEdgeStyle;rounded=0;orthogonalLoop=1;jettySize=auto;html=1;entryX=0.5;entryY=0;entryDx=0;entryDy=0;" parent="1" source="g2C8MorUsqMuOVDlnP0T-12" target="g2C8MorUsqMuOVDlnP0T-14" edge="1">
          <mxGeometry relative="1" as="geometry" />
        </mxCell>
        <mxCell id="g2C8MorUsqMuOVDlnP0T-12" value="For alle rækkerne i &quot;searchButtons&quot;" style="rounded=0;whiteSpace=wrap;html=1;" parent="1" vertex="1">
          <mxGeometry x="1380" y="1000" width="120" height="60" as="geometry" />
        </mxCell>
        <mxCell id="g2C8MorUsqMuOVDlnP0T-17" style="edgeStyle=orthogonalEdgeStyle;rounded=0;orthogonalLoop=1;jettySize=auto;html=1;entryX=0.5;entryY=0;entryDx=0;entryDy=0;" parent="1" source="g2C8MorUsqMuOVDlnP0T-14" target="g2C8MorUsqMuOVDlnP0T-16" edge="1">
          <mxGeometry relative="1" as="geometry">
            <Array as="points">
              <mxPoint x="1400" y="1180" />
            </Array>
          </mxGeometry>
        </mxCell>
        <mxCell id="g2C8MorUsqMuOVDlnP0T-20" style="edgeStyle=orthogonalEdgeStyle;rounded=0;orthogonalLoop=1;jettySize=auto;html=1;entryX=0.5;entryY=0;entryDx=0;entryDy=0;" parent="1" source="g2C8MorUsqMuOVDlnP0T-14" target="g2C8MorUsqMuOVDlnP0T-18" edge="1">
          <mxGeometry relative="1" as="geometry">
            <Array as="points">
              <mxPoint x="1240" y="1180" />
              <mxPoint x="1240" y="1340" />
              <mxPoint x="1320" y="1340" />
            </Array>
          </mxGeometry>
        </mxCell>
        <mxCell id="g2C8MorUsqMuOVDlnP0T-14" value="Er musen indenfor&lt;br&gt;en af knapperne?" style="rhombus;whiteSpace=wrap;html=1;" parent="1" vertex="1">
          <mxGeometry x="1260" y="1120" width="120" height="120" as="geometry" />
        </mxCell>
        <mxCell id="g2C8MorUsqMuOVDlnP0T-19" style="edgeStyle=orthogonalEdgeStyle;rounded=0;orthogonalLoop=1;jettySize=auto;html=1;entryX=1;entryY=0.5;entryDx=0;entryDy=0;" parent="1" source="g2C8MorUsqMuOVDlnP0T-16" target="g2C8MorUsqMuOVDlnP0T-18" edge="1">
          <mxGeometry relative="1" as="geometry" />
        </mxCell>
        <mxCell id="g2C8MorUsqMuOVDlnP0T-16" value="Sæt knappens aktivitet til 1, og index til aktiv knap til knappens index i &quot;searchButtons&quot;" style="rounded=0;whiteSpace=wrap;html=1;" parent="1" vertex="1">
          <mxGeometry x="1340" y="1240" width="120" height="80" as="geometry" />
        </mxCell>
        <mxCell id="g2C8MorUsqMuOVDlnP0T-23" style="edgeStyle=orthogonalEdgeStyle;rounded=0;orthogonalLoop=1;jettySize=auto;html=1;entryX=0.5;entryY=0;entryDx=0;entryDy=0;" parent="1" source="g2C8MorUsqMuOVDlnP0T-18" target="g2C8MorUsqMuOVDlnP0T-22" edge="1">
          <mxGeometry relative="1" as="geometry">
            <Array as="points">
              <mxPoint x="1320" y="1480" />
              <mxPoint x="1520" y="1480" />
              <mxPoint x="1520" y="140" />
              <mxPoint x="1680" y="140" />
            </Array>
          </mxGeometry>
        </mxCell>
        <mxCell id="g2C8MorUsqMuOVDlnP0T-18" value="" style="ellipse;whiteSpace=wrap;html=1;aspect=fixed;" parent="1" vertex="1">
          <mxGeometry x="1300" y="1400" width="40" height="40" as="geometry" />
        </mxCell>
        <mxCell id="g2C8MorUsqMuOVDlnP0T-25" style="edgeStyle=orthogonalEdgeStyle;rounded=0;orthogonalLoop=1;jettySize=auto;html=1;" parent="1" source="g2C8MorUsqMuOVDlnP0T-22" target="g2C8MorUsqMuOVDlnP0T-24" edge="1">
          <mxGeometry relative="1" as="geometry">
            <Array as="points">
              <mxPoint x="1770" y="240" />
            </Array>
          </mxGeometry>
        </mxCell>
        <mxCell id="uDsBkQR0hLYtdLq3cKJU-7" style="edgeStyle=orthogonalEdgeStyle;rounded=0;orthogonalLoop=1;jettySize=auto;html=1;entryX=0;entryY=0.5;entryDx=0;entryDy=0;" edge="1" parent="1" source="g2C8MorUsqMuOVDlnP0T-22" target="uDsBkQR0hLYtdLq3cKJU-3">
          <mxGeometry relative="1" as="geometry">
            <Array as="points">
              <mxPoint x="1560" y="240" />
              <mxPoint x="1560" y="700" />
            </Array>
          </mxGeometry>
        </mxCell>
        <mxCell id="g2C8MorUsqMuOVDlnP0T-22" value="Er index til aktiv knap&lt;br&gt;på andet end -1, og er frameCount på mindst 1?" style="rhombus;whiteSpace=wrap;html=1;" parent="1" vertex="1">
          <mxGeometry x="1600" y="160" width="160" height="160" as="geometry" />
        </mxCell>
        <mxCell id="g2C8MorUsqMuOVDlnP0T-27" style="edgeStyle=orthogonalEdgeStyle;rounded=0;orthogonalLoop=1;jettySize=auto;html=1;entryX=0.5;entryY=0;entryDx=0;entryDy=0;" parent="1" source="g2C8MorUsqMuOVDlnP0T-24" target="g2C8MorUsqMuOVDlnP0T-26" edge="1">
          <mxGeometry relative="1" as="geometry">
            <Array as="points">
              <mxPoint x="1770" y="410" />
              <mxPoint x="1680" y="410" />
            </Array>
          </mxGeometry>
        </mxCell>
        <mxCell id="g2C8MorUsqMuOVDlnP0T-24" value="For alle rækker i &quot;data&quot;" style="rounded=0;whiteSpace=wrap;html=1;" parent="1" vertex="1">
          <mxGeometry x="1700" y="320" width="120" height="60" as="geometry" />
        </mxCell>
        <mxCell id="uDsBkQR0hLYtdLq3cKJU-2" style="edgeStyle=orthogonalEdgeStyle;rounded=0;orthogonalLoop=1;jettySize=auto;html=1;entryX=0.5;entryY=0;entryDx=0;entryDy=0;" edge="1" parent="1" source="g2C8MorUsqMuOVDlnP0T-26" target="uDsBkQR0hLYtdLq3cKJU-1">
          <mxGeometry relative="1" as="geometry">
            <Array as="points">
              <mxPoint x="1760" y="500" />
            </Array>
          </mxGeometry>
        </mxCell>
        <mxCell id="uDsBkQR0hLYtdLq3cKJU-5" style="edgeStyle=orthogonalEdgeStyle;rounded=0;orthogonalLoop=1;jettySize=auto;html=1;entryX=0.5;entryY=0;entryDx=0;entryDy=0;" edge="1" parent="1" source="g2C8MorUsqMuOVDlnP0T-26" target="uDsBkQR0hLYtdLq3cKJU-3">
          <mxGeometry relative="1" as="geometry">
            <Array as="points">
              <mxPoint x="1600" y="500" />
            </Array>
          </mxGeometry>
        </mxCell>
        <mxCell id="g2C8MorUsqMuOVDlnP0T-26" value="Er index til aktiv&lt;br&gt;knap lig med index til spillet?" style="rhombus;whiteSpace=wrap;html=1;" parent="1" vertex="1">
          <mxGeometry x="1620" y="440" width="120" height="120" as="geometry" />
        </mxCell>
        <mxCell id="uDsBkQR0hLYtdLq3cKJU-4" style="edgeStyle=orthogonalEdgeStyle;rounded=0;orthogonalLoop=1;jettySize=auto;html=1;entryX=1;entryY=0.5;entryDx=0;entryDy=0;" edge="1" parent="1" source="uDsBkQR0hLYtdLq3cKJU-1" target="uDsBkQR0hLYtdLq3cKJU-3">
          <mxGeometry relative="1" as="geometry">
            <Array as="points">
              <mxPoint x="1760" y="700" />
            </Array>
          </mxGeometry>
        </mxCell>
        <mxCell id="uDsBkQR0hLYtdLq3cKJU-1" value="Vis infopanelet til spillet" style="rounded=0;whiteSpace=wrap;html=1;" vertex="1" parent="1">
          <mxGeometry x="1700" y="560" width="120" height="60" as="geometry" />
        </mxCell>
        <mxCell id="uDsBkQR0hLYtdLq3cKJU-9" style="edgeStyle=orthogonalEdgeStyle;rounded=0;orthogonalLoop=1;jettySize=auto;html=1;" edge="1" parent="1" source="uDsBkQR0hLYtdLq3cKJU-3" target="uDsBkQR0hLYtdLq3cKJU-8">
          <mxGeometry relative="1" as="geometry" />
        </mxCell>
        <mxCell id="uDsBkQR0hLYtdLq3cKJU-3" value="" style="ellipse;whiteSpace=wrap;html=1;aspect=fixed;" vertex="1" parent="1">
          <mxGeometry x="1580" y="680" width="40" height="40" as="geometry" />
        </mxCell>
        <mxCell id="uDsBkQR0hLYtdLq3cKJU-8" value="end" style="ellipse;whiteSpace=wrap;html=1;fillColor=#d5e8d4;strokeColor=#82b366;" vertex="1" parent="1">
          <mxGeometry x="1620" y="760" width="120" height="80" as="geometry" />
        </mxCell>
      </root>
    </mxGraphModel>
  </diagram>
</mxfile>
